<svg xmlns="http://www.w3.org/2000/svg" xmlns:xlink="http://www.w3.org/1999/xlink" version="1.1" width="3192" 
height="3192" viewBox="0 0 3192 3192">
	<g transform="scale(9.6) translate(10, 10)">
		<defs id="SvgjsDefs7337"></defs><g id="SvgjsG7338" featureKey="rootContainer" transform="matrix(6.25,0,0,6.25,0,0)" fill="#606C38"><circle cx="25" cy="25" r="25"></circle></g><g id="SvgjsG7339" featureKey="symbolFeature-0" transform="matrix(0.9174224483241717,0,0,0.9174224483241717,111.04863319406357,76)" fill="#ffffff"><g xmlns="http://www.w3.org/2000/svg"><path d="M61.132,64.483l-2.073,12.85l-0.591,3.784h-1.124v0.002h-6.3v-0.002h-3.211l-6.027,18.881h3.211l4.889-15.316h8.579   l4.891,15.316h3.012l-4.887-15.315h16.266L72.879,100h3.208l4.892-15.317h8.58L94.444,100h3.017l-5.793-18.147l0.707-4.52   l2.067-12.849H92.2H63.376L61.132,64.483L61.132,64.483z M88.768,81.117h-0.35v0.002h-6.302l0.002-0.002h-3.214L78.9,81.119H61.277   l0.591-3.786h27.49L88.768,81.117z"></path><path d="M41.006,73.291c3.328-1.187,6.307-3.304,8.718-6.1c1.905,0.895,4.026,1.409,6.271,1.409c0.736,0,1.456-0.076,2.163-0.187   l0.693-4.3c0.18-1.118,1.145-1.939,2.277-1.939h2.246h4.748c1.652-2.39,2.666-5.248,2.666-8.371   c-0.004-4.554-2.061-8.623-5.297-11.338c3.235-2.714,5.293-6.782,5.293-11.339c0-8.171-6.622-14.795-14.795-14.795   c-0.301,0-0.592,0.026-0.891,0.045C52.163,6.832,44.396,0,35.241,0C23.565,0,14.103,11.095,14.103,24.787   c0,0.036,0.004,0.072,0.004,0.107c-7.358,0.856-13.07,7.104-13.07,14.69c0,6.163,3.765,11.437,9.12,13.663   c-0.909,1.921-1.433,4.058-1.433,6.324c0,8.169,6.624,14.791,14.796,14.791c1.829,0,3.571-0.343,5.189-0.95v21.55h12.284   l0.014-0.041V73.291z"></path><g><path d="M82.627,14.448L82.627,14.448c-0.999-0.199-1.648-1.169-1.451-2.169c0.253-1.279-4.203-3.745-9.002-4.982    c-0.985-0.255-1.58-1.261-1.327-2.249c0.259-0.987,1.297-1.573,2.251-1.328c2.144,0.554,7.688,2.208,10.335,5.096    c3.014-2.242,8.176-2.454,11.196-1.854c1,0.199,1.648,1.17,1.449,2.169c-0.196,1.001-1.169,1.649-2.166,1.453    c-2.854-0.567-8.621-0.067-9.113,2.412C84.601,13.997,83.627,14.646,82.627,14.448z"></path></g></g></g><g id="SvgjsG7340" featureKey="nameFeature-0" transform="matrix(0.7612319049742469,0,0,0.7612319049742469,56.00000018149183,180.60082640634678)" fill="#ffffff"><path d="M6.64 28.72 l-4.32 0 l0 11.28 l-2.32 0 l0 -30 l7.24 0 c2.64 0 4.7132 0.80668 6.22 2.42 s2.26 3.9533 2.26 7.02 c0 1.36 -0.22 2.6067 -0.66 3.74 s-1.06 2.1133 -1.86 2.94 s-1.7533 1.4667 -2.86 1.92 s-2.34 0.68 -3.7 0.68 z M6.44 12.04 l-4.12 0.000039062 l0 14.48 l3.72 0 c1.36 0 2.5067 -0.19332 3.44 -0.58 s1.6866 -0.90668 2.26 -1.56 s0.98664 -1.4133 1.24 -2.28 s0.38 -1.78 0.38 -2.74 c0 -0.98668 -0.09332 -1.9267 -0.28 -2.82 s-0.53336 -1.6733 -1.04 -2.34 s-1.2134 -1.1934 -2.12 -1.58 s-2.0667 -0.58 -3.48 -0.58 z M33.364000000000004 40 l-2.2 -8.84 l-9.76 0 l-2.2 8.84 l-2 0 l8.28 -30 l1.72 0 l8.24 30 l-2.08 0 z M26.404 11.879999999999999 l-4.52 17.36 l8.76 0 z M54.648 40 l-6.6 -12.44 l-6.12 0 l0 12.44 l-1.96 0 l0 -30 l6.8 0 c1.5733 0 2.92 0.23332 4.04 0.7 s2.04 1.1 2.76 1.9 s1.2533 1.7267 1.6 2.78 s0.52 2.1533 0.52 3.3 c0 1.9467 -0.5 3.7 -1.5 5.26 s-2.3133 2.7 -3.94 3.42 l7.04 12.64 l-2.64 0 z M46.488 11.84 l-4.56 -0.000039062 l0 13.68 l4.84 0 c1.36 0 2.48 -0.20668 3.36 -0.62 s1.5667 -0.94664 2.06 -1.6 s0.84 -1.4 1.04 -2.24 s0.3 -1.7 0.3 -2.58 c0 -0.93332 -0.16 -1.8 -0.48 -2.6 s-0.78 -1.5 -1.38 -2.1 s-1.3333 -1.0733 -2.2 -1.42 s-1.86 -0.52 -2.98 -0.52 z M74.572 32.44 c-0.02668 1.3333 -0.15316 2.5 -0.37984 3.5 s-0.61336 1.8267 -1.16 2.48 s-1.2667 1.14 -2.16 1.46 s-2.02 0.48 -3.38 0.48 c-2.3467 0 -4.0532 -0.65332 -5.12 -1.96 s-1.6 -3.2934 -1.6 -5.96 l0 -14.8 c0 -2.6667 0.54 -4.6532 1.62 -5.96 s2.9267 -1.96 5.54 -1.96 c2.3467 0 4.0268 0.65332 5.04 1.96 s1.5466 3.2934 1.6 5.96 l0.04 1.84 l-1.84 0 l-0.04 -2.32 c0 -0.66668 -0.06668 -1.34 -0.2 -2.02 s-0.37332 -1.3 -0.72 -1.86 s-0.83336 -1.0133 -1.46 -1.36 s-1.46 -0.52 -2.5 -0.52 c-1.0133 0 -1.86 0.16 -2.54 0.48 s-1.22 0.76 -1.62 1.32 s-0.67332 1.22 -0.82 1.98 s-0.22 1.58 -0.22 2.46 l0.08 15 c0 1.84 0.34 3.28 1.02 4.32 s1.9267 1.56 3.74 1.56 c1.04 0 1.9 -0.14 2.58 -0.42 s1.2133 -0.67332 1.6 -1.18 s0.66 -1.12 0.82 -1.84 s0.24 -1.5067 0.24 -2.36 l0.04 -2.6 l1.84 0 z M104.5 33.92 c-0.18668 0.82668 -0.46 1.6067 -0.82 2.34 s-0.83332 1.38 -1.42 1.94 s-1.3 1 -2.14 1.32 s-1.82 0.48 -2.94 0.48 l-7.28 0 l0 -30 l7 0 c2.0267 0 3.7267 0.47332 5.1 1.42 s2.26 2.54 2.66 4.78 c0.08 0.42668 0.14668 1.0867 0.2 1.98 s0.09332 1.92 0.12 3.08 s0.04 2.38 0.04 3.66 s-0.02 2.5067 -0.06 3.68 s-0.1 2.2333 -0.18 3.18 s-0.17332 1.66 -0.28 2.14 z M96.54 12.04 l-4.64 0.000039062 l0 25.8 l5.2 0 c0.72 0 1.36 -0.12668 1.92 -0.38 s1.06 -0.58664 1.5 -0.99996 s0.80668 -0.87332 1.1 -1.38 s0.53332 -1 0.72 -1.48 c0.13332 -0.34668 0.24664 -0.97336 0.33996 -1.88 s0.16 -1.94 0.2 -3.1 s0.06 -2.3933 0.06 -3.7 s-0.02 -2.5334 -0.06 -3.68 s-0.1 -2.16 -0.18 -3.04 s-0.17332 -1.4933 -0.28 -1.84 c-0.16 -0.48 -0.37332 -0.98 -0.64 -1.5 s-0.62 -0.98668 -1.06 -1.4 s-1 -0.75332 -1.68 -1.02 s-1.5133 -0.4 -2.5 -0.4 z M118.504 40.36 c-2.4533 0 -4.3536 -0.66672 -5.7 -2 s-2.02 -3.3066 -2.02 -5.92 l0 -22.44 l2.16 0 l0 22.32 c0 0.64 0.08668 1.3133 0.26 2.02 s0.47332 1.3467 0.9 1.92 s0.99336 1.0466 1.7 1.42 s1.58 0.56 2.62 0.56 c1.1467 0 2.0934 -0.16668 2.84 -0.5 s1.3467 -0.79332 1.8 -1.38 s0.77332 -1.28 0.96 -2.08 s0.28 -1.6533 0.28 -2.56 l0 -21.72 l2.12 0 l0 22.44 c0 2.6667 -0.64668 4.6532 -1.94 5.96 s-3.2866 1.96 -5.98 1.96 z M150.392 12.2 l0 27.8 l-2.32 0 l0 -27.8 l-6.52 0 l0 -2.2 l15.36 0 l0 2.2 l-6.52 0 z M174.316 40 l-0.04 -13.96 l-10.96 0 l0.04 13.96 l-2.32 0 l0 -30 l2.32 0 l-0.04 13.92 l10.96 0 l0.04 -13.92 l2.36 0 l0 30 l-2.36 0 z M197.32 40 l-2.2 -8.84 l-9.76 0 l-2.2 8.84 l-2 0 l8.28 -30 l1.72 0 l8.24 30 l-2.08 0 z M190.35999999999999 11.879999999999999 l-4.52 17.36 l8.76 0 z M217.004 37.84 c-1.5733 1.44 -3.7068 2.1602 -6.4 2.1602 l-6.84 0 l0 -30 l5.84 0 c1.6 0 2.9333 0.20668 4 0.62 s1.92 0.97332 2.56 1.68 s1.0867 1.5267 1.34 2.46 s0.38 1.9066 0.38 2.92 c0 1.0933 -0.32668 2.1266 -0.98 3.1 s-1.5266 1.8866 -2.62 2.74 c0.42668 0.26668 0.76 0.47336 1 0.62004 s0.46668 0.28668 0.68 0.42 c0.34668 0.29332 0.73336 0.64664 1.16 1.06 s0.82 0.89332 1.18 1.44 s0.66 1.1667 0.9 1.86 s0.36 1.4666 0.36 2.32 c0 1.4933 -0.22 2.7733 -0.66 3.84 s-1.0733 1.9867 -1.9 2.76 z M210.564 12 l-4.72 0.000078124 l0 10.8 l5.12 0 c0.72 0 1.38 -0.13332 1.98 -0.4 s1.12 -0.63336 1.56 -1.1 s0.78668 -1.0067 1.04 -1.62 s0.38 -1.28 0.38 -2 c0 -0.50668 -0.07332 -1.0934 -0.22 -1.76 s-0.42 -1.2867 -0.82 -1.86 s-0.94668 -1.06 -1.64 -1.46 s-1.5866 -0.6 -2.68 -0.6 z M210.80399999999997 24.8 l-4.96 0.000078124 l0 13.08 l4.28 0 c0.88 0 1.76 -0.10668 2.64 -0.32 s1.68 -0.57332 2.4 -1.08 s1.3 -1.1734 1.74 -2 s0.66 -1.8534 0.66 -3.08 c0 -1.12 -0.17332 -2.1 -0.52 -2.94 s-0.82668 -1.5267 -1.44 -2.06 s-1.3333 -0.93332 -2.16 -1.2 s-1.7067 -0.4 -2.64 -0.4 z M231.408 40.36 c-5.04 0 -7.56 -2.64 -7.56 -7.92 l0 -14.8 c0 -2.6667 0.63332 -4.6532 1.9 -5.96 s3.3134 -1.96 6.14 -1.96 c2.5867 0 4.5 0.66 5.74 1.98 s1.86 3.2733 1.86 5.86 l0 14.88 c0 1.3333 -0.14 2.4933 -0.42 3.48 s-0.74 1.8134 -1.38 2.48 s-1.4733 1.16 -2.5 1.48 s-2.2867 0.48 -3.78 0.48 z M237.368 17.52 c0 -0.66668 -0.09328 -1.3468 -0.27996 -2.0401 s-0.49336 -1.3266 -0.92004 -1.9 s-0.99336 -1.04 -1.7 -1.4 s-1.58 -0.54 -2.62 -0.54 c-1.1467 0 -2.1 0.16 -2.86 0.48 s-1.36 0.76668 -1.8 1.34 s-0.75332 1.2466 -0.94 2.02 s-0.28 1.6133 -0.28 2.52 l0 14.2 c0 0.69332 0.08 1.4 0.24 2.12 s0.44668 1.38 0.86 1.98 s0.97332 1.0933 1.68 1.48 s1.5934 0.58 2.66 0.58 c1.1467 0 2.1 -0.15332 2.86 -0.46 s1.3667 -0.72668 1.82 -1.26 s0.78 -1.1666 0.98 -1.9 s0.3 -1.5266 0.3 -2.38 l0 -14.84 z M260.092 40 l-6.6 -12.44 l-6.12 0 l0 12.44 l-1.96 0 l0 -30 l6.8 0 c1.5733 0 2.92 0.23332 4.04 0.7 s2.04 1.1 2.76 1.9 s1.2533 1.7267 1.6 2.78 s0.52 2.1533 0.52 3.3 c0 1.9467 -0.5 3.7 -1.5 5.26 s-2.3133 2.7 -3.94 3.42 l7.04 12.64 l-2.64 0 z M251.93200000000002 11.84 l-4.56 -0.000039062 l0 13.68 l4.84 0 c1.36 0 2.48 -0.20668 3.36 -0.62 s1.5667 -0.94664 2.06 -1.6 s0.84 -1.4 1.04 -2.24 s0.3 -1.7 0.3 -2.58 c0 -0.93332 -0.16 -1.8 -0.48 -2.6 s-0.78 -1.5 -1.38 -2.1 s-1.3333 -1.0733 -2.2 -1.42 s-1.86 -0.52 -2.98 -0.52 z"></path></g><g id="SvgjsG7341" featureKey="sloganFeature-0" transform="matrix(0.7480801765796138,0,0,0.7480801765796138,116.63393801911005,221.74099240056424)" fill="#ffffff"><path d="M9.2773 20 l-3.6719 -6.2109 l-0.84961 0 l0 6.2109 l-2.9297 0 l0 -14.111 l5.1172 0 c3.1934 0 4.541 1.8848 4.541 4.2188 c0 1.8945 -1.0742 3.125 -2.9883 3.5352 l4.248 6.3574 l-3.4668 0 z M4.7559 8.32 l0 3.3691 l1.7285 0 c1.5625 0 2.1973 -0.66406 2.1973 -1.6797 c0 -1.0059 -0.63477 -1.6895 -2.1973 -1.6895 l-1.7285 0 z M28.071523437499998 8.467 l-5.2344 0 l0 3.2031 l4.6387 0 l0 2.5488 l-4.6387 0 l0 3.1934 l5.2344 0 l0 2.5879 l-8.1836 0 l0 -14.111 l8.1836 0 l0 2.5781 z M45.7228125 5.888999999999999 l2.9199 0 l0 14.111 l-3.3887 0 l-6.25 -10.088 l0 10.088 l-2.9199 0 l0 -14.111 l3.3496 0 l6.2891 10.029 l0 -10.029 z M66.9288671875 5.888999999999999 l2.9199 0 l0 14.111 l-3.3887 0 l-6.25 -10.088 l0 10.088 l-2.9199 0 l0 -14.111 l3.3496 0 l6.2891 10.029 l0 -10.029 z M86.679921875 8.467 l-5.2344 0 l0 3.2031 l4.6387 0 l0 2.5488 l-4.6387 0 l0 3.1934 l5.2344 0 l0 2.5879 l-8.1836 0 l0 -14.111 l8.1836 0 l0 2.5781 z M99.3799109375 20.19531 c-3.0273 0 -5.3906 -1.4551 -5.8203 -4.1016 l3.0273 -0.69336 c0.19531 1.582 1.3574 2.4023 2.9102 2.4023 c1.1914 0 2.1387 -0.52734 2.1289 -1.7188 c-0.0097656 -1.3281 -1.5723 -1.748 -3.291 -2.2754 c-2.0703 -0.64453 -4.2871 -1.4063 -4.2871 -4.0039 c0 -2.627 2.1484 -4.1113 4.9805 -4.1113 c2.4805 0 4.9805 1.0059 5.5469 3.7109 l-2.832 0.70313 c-0.26367 -1.4063 -1.2109 -2.0215 -2.5391 -2.0215 c-1.1816 0 -2.1875 0.48828 -2.1875 1.6504 c0 1.084 1.3867 1.4453 2.9883 1.9238 c2.1289 0.64453 4.6484 1.4648 4.6484 4.2773 c0 2.998 -2.5098 4.2578 -5.2734 4.2578 z"></path></g>
	</g>
</svg>
